<?xml version="1.0" encoding="UTF-8" standalone="no"?>
<!-- Created with Inkscape (http://www.inkscape.org/) -->

<svg
   xmlns="http://www.w3.org/2000/svg"
   width="900"
   height="450"
   >
       
       
    <path
       style="fill:red;stroke:black;stroke-width:5;"
       d="m 200,100 a 4,1 0 0 0 200,0 a 4,1 0 0 0 -200,0"
       id="top_circle"/>
    <path
       style="fill:red;stroke:black;stroke-width:5;"
       d="m 200,100 0,100 a 4,1 0 0 0 200,0 l 0,-100 a 4,1 0 0 1 -200,0"
       id="upper_half"/>
       
    <path
       style="fill:lightgreen;stroke:black;stroke-width:5;"
       d="m 200,200 0,100 a 4,1 0 0 0 200,0 l 0,-100 a 4,1 0 0 1 -200,0"
       id="lower_half"/>
       
       
    <path
       style="fill:red;stroke:black;stroke-width:5;"
       d="m 500,100 a 4,1 0 0 0 200,0 a 4,1 0 0 0 -200,0"
       id="top_circle"/>
    <path
       style="fill:red;stroke:black;stroke-width:5;"
       d="m 500,125 0,100 a 4,1 0 0 0 200,0 l 0,-100 a 4,1 0 0 1 -200,0"
       id="upper_half"/>
    <path
       style="fill:lightgreen;stroke:black;stroke-width:5;"
       d="m 500,250 0,100 a 4,1 0 0 0 200,0 l 0,-100 a 4,1 0 0 1 -200,0"
       id="lower_half"/>
</svg>
