<svg viewBox="0 0 400 400">
  <path d="M81.934 104.043l41.28-35.223 16.443 6.67-2.277 3.125z" class="psc" fill="#f18700"/>
  <path d="M157.176 85.35l1.363-6.97-18.89-2.89-2.28 3.125-22.15 51.573 41.94-44.84" class="psc" fill="#f18700"/>
  <path d="M180.01 85.396l-.797-6.973-20.674-.045-1.37 6.97 10.5 55.91L180 85.396" class="psc" fill="#f18700"/>
  <path d="M115.492 43.964v9.88l-36.196-5.31 36.196-4.57" class="psc" fill="#f18700"/>
  <path d="M71.95 74.32l43.556-17.466 6.29 10.945-49.847 6.52" class="psc" fill="#f18700"/>
  <path d="M214.908 68.98l-16.392 6.556 1.636 3.18 55.625 25.943-40.87-35.68" class="psc" fill="#f18700"/>
  <path d="M222.865 56.773l-6.418 11.118 50.593 6.67z" class="psc" fill="#f18700"/>
  <path d="M200.152 78.715l-1.636-3.18-19.303 2.888.798 6.973 40.9 45.38-20.75-52.06" class="psc" fill="#f18700"/>
  <path d="M222.873 43.77v10.075l37.462-5.45-37.462-4.626" class="psc" fill="#f18700"/>
  <path d="M96.728 29.143l18.764 2.08v7.08l-18.764-9.16" class="psc" fill="#f18700"/>
  <path d="M126.636 21.788c.007-.11-.015-.222-.015-.332v35.17c0 3.198 14.92 11.018 42.57 11.018s42.56-7.82 42.56-11.018V21.87c0-.03 0-.05.01-.07-.01-.6-1.87-3.6-10.42-6.51-8.5-2.908-19.91-4.5-32.13-4.5-27.19 0-42.35 7.8-42.55 10.99" fill="#d3d2d2"/>
  <path d="M272.557 12.8h-53.59c-2.686-2.834-7.055-5.65-14.054-8.04-9.63-3.285-22.32-5.095-35.73-5.095-13.41 0-26.1 1.81-35.73 5.095-7.002 2.39-11.374 5.206-14.06 8.04H65.81c-4.672 0-8.456 3.786-8.456 8.455V140.68c0 4.67 3.784 8.456 8.455 8.456h206.74c4.67 0 8.45-3.786 8.45-8.456V21.255c0-4.67-3.79-8.454-8.46-8.454zm-145.44 23.463c10.504 5.223 26.634 7.693 42.066 7.693 15.43 0 31.56-2.47 42.064-7.693v20.355c-.5 3.152-15.4 10.528-42.064 10.528-26.665 0-41.565-7.376-42.065-10.528V36.263zm95.756 7.506l37.462 4.62-37.462 5.45V43.77zm0-5.26v-7.4l20.225-2.3-20.225 9.7zm-53.69-27.22c26.64 0 41.533 7.36 42.062 10.52-.53 3.15-15.423 10.52-42.062 10.52-26.64 0-41.533-7.37-42.062-10.52.53-3.16 15.43-10.52 42.07-10.52zm-53.69 19.93v7.08l-18.765-9.16 18.764 2.08zm0 12.74v9.88l-36.197-5.31 36.196-4.57zm.013 12.89c.08 4.31 2.405 7.94 6.29 10.94L71.95 74.32l43.555-17.467zm105.4 73.92L180.01 85.39l-12.33 55.86-10.5-55.907-41.943 44.837 22.15-51.572-55.445 25.43 41.28-35.225c10.068 6.77 28.464 9.95 45.97 9.95 17.363 0 35.604-3.13 45.724-9.79l40.87 35.68-55.626-25.946 20.753 52.062zm-4.46-62.89c3.982-3.04 6.366-6.73 6.42-11.12l44.174 17.79-50.593-6.67" fill="#231f20"/>
  <path d="M222.873 31.113v7.4l20.225-9.702z" class="psc" fill="#f18700"/>
  <g fill="#231f20">
    <path d="M4.804 178.39c0 3.51 2.127 6.622 5.99 8.76 2.635 1.447 2.825 2.21 2.825 3.294 0 1.458-1.33 2.474-3.22 2.474-1.94 0-3.96-.83-4.83-1.39-.51-.324-1.14-.404-1.71-.217-.58.19-1.04.62-1.26 1.19l-1.37 3.47c-.33.84-.07 1.79.64 2.34 1.73 1.34 4.87 2.24 8.02 2.3 7.42 0 12.58-4.55 12.58-11.06 0-2.49-1.07-6.06-6.13-8.97-2.59-1.41-2.8-2.15-2.8-2.85 0-1.25 1.2-2.13 2.92-2.13 1.9 0 3.31.75 3.7.97.51.31 1.14.37 1.7.16.56-.2 1.01-.64 1.21-1.2l1.31-3.58c.32-.87 0-1.85-.78-2.37-1.55-1.03-4.22-1.7-6.804-1.7-6.86 0-12.03 4.54-12.03 10.558"/>
    <path d="M48.184 168.463c-.97 0-1.803.69-1.984 1.644l-2.673 14.104c-1.024 5.43-4.79 8.43-7.002 8.43-1.565 0-2.36-.42-2.36-2.76 0-.96.13-2.09.42-3.67l2.9-15.34c.112-.59-.048-1.2-.43-1.66-.382-.46-.953-.73-1.554-.73h-4.66c-.96 0-1.8.69-1.98 1.64l-3.01 15.53c-.37 1.98-.55 3.63-.55 5.05 0 6.25 3.48 9.98 9.3 9.98 2.47 0 4.92-.94 7.14-2.49.04.43.15.84.44 1.17.39.44.94.7 1.53.7h4.27c1.04 0 1.91-.78 2.01-1.82.22-2.21.62-4.85 1.17-7.85l3.75-19.49c.12-.59-.04-1.2-.42-1.67-.38-.46-.95-.73-1.55-.73H48.2"/>
    <path d="M66.683 170.273c-.035-.424-.153-.844-.438-1.172-.383-.44-.94-.69-1.525-.69h-4.322c-1.02 0-1.88.76-2.005 1.78-.366 2.99-.946 6.71-1.515 9.71l-5.518 29c-.11.59.048 1.21.43 1.67.387.46.956.73 1.558.73h4.72c.973 0 1.808-.69 1.987-1.65l1.778-9.53c1.14.31 2.62.55 4.484.55 9.82 0 18.115-9.54 18.115-20.84 0-3.11-.846-5.98-2.383-8.07-1.88-2.55-4.67-3.9-8.06-3.9-2.61 0-5.1.91-7.31 2.44zm-2.194 15.82c1.3-7.1 5.31-10.292 7.73-10.292 2.84 0 3.27 2.73 3.27 4.35 0 6.45-4.52 12.77-9.13 12.77-1.21 0-2.19-.25-3.03-.62l1.15-6.2"/>
    <path d="M85.392 187.544c0 8.052 4.785 13.054 12.485 13.054 3.59 0 7.36-.903 10.08-2.417.764-.42 1.17-1.29 1.003-2.14l-.682-3.52c-.122-.63-.536-1.16-1.114-1.44-.58-.27-1.254-.26-1.82.04-2.068 1.11-4.176 1.64-6.443 1.64-2.16 0-3.56-.81-4.28-2.47-.26-.59-.38-1.52-.44-2.38 7.64-.09 12.83-1.49 15.69-4.3 1.77-1.74 2.67-3.97 2.67-6.62 0-5.46-4.05-9.13-10.09-9.13-10.04 0-17.03 10.39-17.03 19.71zm16.352-11.97c1.453 0 2.19.488 2.19 1.45 0 .6-.155.984-.518 1.34-.787.777-2.794 1.655-7.714 1.84 1.316-2.558 3.49-4.63 6.042-4.63"/>
    <path d="M123.553 170.024c-.075-.312-.12-.637-.338-.887-.383-.438-.94-.674-1.52-.674h-4.153c-1.015 0-1.872.744-2.002 1.752l-.234 1.82-1.17 7.85-3.356 17.75c-.112.59.045 1.2.43 1.663.383.463.953.73 1.554.73h4.72c.973 0 1.807-.692 1.986-1.647l2.276-12.17c1.016-5.42 4.04-9.67 6.886-9.67l.974.09c1.03.09 2.12-.59 2.317-1.6l.91-4.66c.11-.56.034-1.14-.315-1.6-.346-.46-.812-.74-1.386-.78l-1.646-.13c-2.13 0-4.143.78-5.933 2.19"/>
    <path d="M157.242 171.765c-1.4-2.476-3.93-3.928-7.255-3.928-2.594 0-5.007.893-7.166 2.418-.04-.394-.14-.79-.4-1.095-.38-.443-.94-.697-1.52-.697h-4.15c-.99 0-1.85.785-2 1.77l-1.23 7.9-3.69 19.5c-.11.592.05 1.2.43 1.665.39.463.96.73 1.56.73h4.61c.98 0 1.81-.694 1.99-1.65l2.56-13.82c.99-5.347 4.71-8.757 6.83-8.757 1.29 0 2.08.19 2.08 2.7 0 .92-.09 1.81-.31 3l-3.065 16.14c-.11.59.04 1.21.43 1.67.38.47.95.73 1.556.73h4.55c.976 0 1.81-.69 1.988-1.65l2.62-14.1c1.025-5.52 4.528-8.47 6.66-8.47 1.25 0 2.13.2 2.13 2.76 0 .92-.134 2.13-.352 3.17l-2.96 15.91c-.11.59.047 1.2.432 1.66.38.46.95.73 1.55.73h4.6c.974 0 1.806-.69 1.986-1.64l3.075-16.26c.293-1.58.492-3.61.492-5.04 0-6.35-4.524-9.24-8.73-9.24-3.533.05-6.7 1.44-9.24 3.93"/>
    <path d="M175.763 189.536c0 6.546 4.083 11.12 9.927 11.12 3.12 0 5.83-1.195 8.198-3.304-.006.195-.037.48-.037.658 0 1.116.91 2.02 2.02 2.02h4.38c.55 0 1.07-.224 1.46-.618.38-.396.59-.928.57-1.477-.09-2.51.14-7.236 1.11-12.288l2.85-14.375c.21-1.025-.41-2.034-1.41-2.33-2.32-.68-5.37-1.105-7.96-1.105-13.19 0-21.07 11.033-21.07 21.7zm8.933-.854c0-6.83 5.217-13.052 10.947-13.052.39 0 .62.032.922.05-.448 2.328-1.2 6.253-1.2 6.253-1.187 6.377-5.15 10.814-7.97 10.814-.738 0-2.7 0-2.7-4.065"/>
    <path d="M205.795 188.455c0 5.75 3.583 11.574 10.436 11.574 2.19 0 4.25-.6 6.1-1.67-1.71 4.96-4.58 5.7-7.23 5.7-2.69 0-5.04-.75-6.17-1.49-.52-.34-1.17-.43-1.75-.23-.58.2-1.05.65-1.26 1.24l-1.3 3.7c-.31.87.02 1.84.79 2.35 2.11 1.4 5.7 2.27 9.37 2.27 3.08 0 7.47-.61 10.91-3.49 3.08-2.71 4.98-6.87 6.21-13.53l4.27-22.75c.17-.91-.29-1.81-1.12-2.2-2.073-.98-5.87-2.13-9.734-2.13-12.197 0-19.48 10.49-19.48 20.62zm10.067 3.018c-.717-.732-1.112-2.11-1.08-3.778v-.036c0-5.69 3.956-12.03 9.638-12.03.842 0 1.61.11 2.238.27l-1.435 7.45c-.865 4.57-4.35 8.88-7.173 8.88-.967 0-1.684-.25-2.188-.77"/>
    <path d="M248.46 170.39c-.024-.45-.163-.89-.464-1.235-.383-.44-.938-.692-1.52-.692h-4.266c-1.018 0-1.878.758-2.004 1.77-.343 2.733-.76 5.306-1.284 7.865l-3.645 19.54c-.112.592.044 1.198.43 1.66.385.464.954.73 1.554.73h4.67c.97 0 1.81-.692 1.99-1.647l2.51-13.36c1.09-5.93 5.07-9.21 7.4-9.21 1.26 0 2.3.21 2.3 2.76 0 1.07-.15 2.22-.31 3.21l-3.01 15.86c-.11.59.05 1.2.43 1.67.39.47.96.73 1.56.73h4.67c.97 0 1.8-.68 1.99-1.64l3.07-16.09c.17-.85.55-3.03.55-4.81 0-7.11-4.82-9.64-8.96-9.64-2.76 0-5.34.96-7.63 2.55"/>
    <path d="M265.713 187.544c0 8.052 4.785 13.054 12.485 13.054 3.59 0 7.36-.903 10.082-2.417.763-.42 1.166-1.29 1-2.14l-.68-3.52c-.123-.63-.535-1.16-1.114-1.44-.58-.27-1.255-.26-1.82.04-2.07 1.11-4.176 1.64-6.444 1.64-2.166 0-3.567-.81-4.287-2.47-.262-.59-.385-1.52-.444-2.38 7.65-.09 12.83-1.49 15.69-4.3 1.77-1.74 2.67-3.97 2.67-6.62 0-5.46-4.06-9.13-10.09-9.13-10.04 0-17.03 10.39-17.03 19.71zm16.353-11.97c1.452 0 2.187.488 2.187 1.45 0 .6-.153.984-.517 1.34-.786.777-2.793 1.655-7.713 1.84 1.317-2.558 3.492-4.63 6.043-4.63"/>
    <path d="M305.908 161.955l-4.948 1.536c-.713.23-1.245.82-1.384 1.55 0 0-.37 1.93-.654 3.43h-2.254c-.973 0-1.808.7-1.987 1.66l-.68 3.7c-.02.12-.03.25-.03.37 0 .47.17.93.47 1.29.39.47.96.73 1.56.73h1.48l-2.21 11.54c-.39 1.99-.66 3.69-.66 5.5 0 4.48 3.07 7.37 7.82 7.37.83 0 2.91-.06 4.39-.65.73-.29 1.22-.97 1.27-1.75l.23-3.692c.04-.65-.23-1.28-.74-1.694-.5-.41-1.18-.556-1.8-.38-.38.1-.94.15-1.69.15-.38 0-.51-.073-.52-.08 0-.01-.08-.16-.08-.57 0-1.11.16-2.323.52-3.943l2.21-11.785h4.92c.96 0 1.79-.68 1.98-1.62l.74-3.695c.03-.134.04-.266.04-.4 0-.46-.16-.915-.46-1.28-.38-.47-.95-.74-1.56-.74h-4.16l.8-4.2c.02-.124.04-.25.04-.376 0-.57-.24-1.12-.67-1.51-.53-.47-1.27-.63-1.945-.42"/>
    <path d="M310.047 187.544c0 8.052 4.785 13.054 12.485 13.054 3.59 0 7.36-.903 10.08-2.417.765-.42 1.168-1.29 1-2.14l-.68-3.52c-.12-.63-.534-1.16-1.112-1.44-.58-.27-1.255-.26-1.82.04-2.07 1.11-4.177 1.64-6.444 1.64-2.166 0-3.568-.81-4.288-2.47-.26-.59-.386-1.52-.445-2.38 7.643-.09 12.825-1.49 15.687-4.3 1.77-1.74 2.668-3.97 2.668-6.62 0-5.46-4.057-9.13-10.095-9.13-10.038 0-17.036 10.39-17.036 19.71zm16.353-11.97c1.452 0 2.187.488 2.187 1.45 0 .6-.154.984-.517 1.34-.787.777-2.793 1.655-7.713 1.84 1.316-2.558 3.49-4.63 6.043-4.63"/>
  </g>
</svg>
