<?xml version="1.0" encoding="UTF-8" standalone="no"?>

<svg viewBox="0 0 400 400">
  <path style="fill:#f18700" d="m 129.93429,362.04291 41.28025,-35.22275 16.44245,6.66989 -2.27733,3.12511 z" id="path4805" inkscape:connector-curvature="0" transform="translate(-48,-258)" class="psc"></path>
  <path style="fill:#f18700" d="m 205.17591,343.34891 1.36348,-6.97037 -18.8824,-2.88849 -2.27733,3.12511 -22.1495,51.57275 41.94575,-44.839" id="path4807" inkscape:connector-curvature="0" transform="translate(-48,-258)" class="psc"></path>
  <path style="fill:#f18700" d="m 228.01091,343.39641 -0.79814,-6.97372 -20.67338,-0.0442 -1.36348,6.97037 10.49875,55.90925 12.33625,-55.86175" id="path4809" inkscape:connector-curvature="0" transform="translate(-48,-258)" class="psc"></path>
  <path style="fill:#f18700" d="m 163.49246,301.96391 0,9.87875 -36.19625,-5.30875 36.19625,-4.57 0,0" id="path4798" inkscape:connector-curvature="0" sodipodi:nodetypes="ccccc" transform="translate(-48,-258)" class="psc"></path>
  <path style="fill:#f18700" d="m 119.94891,332.32016 43.55675,-17.46625 6.2895,10.945 -49.84625,6.52125" id="path4800" inkscape:connector-curvature="0" transform="translate(-48,-258)" class="psc"></path>
  <path style="fill:#f18700" d="m 262.90841,326.98016 -16.39195,6.55601 1.6357,3.17899 55.625,25.94388 -40.86875,-35.67888" id="path4813" inkscape:connector-curvature="0" transform="translate(-48,-258)" class="psc"></path>
  <path style="fill:#f18700" d="m 270.86466,314.77266 -6.4175,11.11875 50.5925,6.67 z" id="path4815" inkscape:connector-curvature="0" transform="translate(-48,-258)" class="psc"></path>
  <path style="fill:#f18700" d="m 248.15216,336.71516 -1.6357,-3.17899 -19.30369,2.88652 0.79814,6.97369 40.89375,45.3809 -20.7525,-52.06212" id="path4811" inkscape:connector-curvature="0" transform="translate(-48,-258)" class="psc"></path>
  <path style="fill:#f18700" d="m 270.87346,301.76891 0,10.07625 37.46125,-5.44875 -37.46125,-4.6275" id="path4817" inkscape:connector-curvature="0" transform="translate(-48,-258)" class="psc"></path>    <path style="fill:#f18700" d="m 144.72784,287.14266 18.76462,2.08125 0,7.08 -18.76462,-9.16125" id="path5279" inkscape:connector-curvature="0" transform="translate(-48,-258)" class="psc"></path>
  <path inkscape:connector-curvature="0" id="path4698" style="fill:#d3d2d2;fill-opacity:1;fill-rule:nonzero;stroke:none" d="m 174.63596,279.78766 c 0.007,-0.11 -0.015,-0.22125 -0.015,-0.33125 l 0,35.17 c 0,3.1975 14.915,11.0175 42.5625,11.0175 27.6475,0 42.56125,-7.82 42.56125,-11.0175 l 0,-34.37 c 0,-0.1 -0.004,-0.2475 -0.004,-0.3875 0,-0.0238 0.001,-0.0413 0.003,-0.065 -0.009,-0.5975 -1.87375,-3.595 -10.4225,-6.51125 -8.50375,-2.90125 -19.9175,-4.49875 -32.1375,-4.49875 -27.19125,0 -42.3475,7.80375 -42.5475,10.99375" transform="translate(-48,-258)"></path>
  <path inkscape:connector-curvature="0" id="path4700" style="fill:#231f20;fill-opacity:1;fill-rule:nonzero;stroke:none" d="m 320.55721,270.80141 -53.58875,0 c -2.6875,-2.835 -7.05625,-5.6525 -14.055,-8.04125 -9.63125,-3.285 -22.32,-5.095 -35.73,-5.095 -13.41125,0 -26.10125,1.81 -35.73125,5.095 -7.00125,2.38875 -11.37337,5.20625 -14.05837,8.04125 l -53.585,0 c -4.67038,0 -8.4545,3.785 -8.4545,8.45375 l 0,119.42437 c 0,4.6705 3.78412,8.45613 8.4545,8.45613 l 206.74837,0 c 4.66875,0 8.45375,-3.78563 8.45375,-8.45613 l 0,-119.42437 c 0,-4.66875 -3.785,-8.45375 -8.45375,-8.45375 z m -145.43875,23.46125 c 10.5025,5.22375 26.6325,7.69375 42.065,7.69375 15.43,0 31.56,-2.47 42.06375,-7.69375 l 0,20.355 c -0.50125,3.1525 -15.39875,10.52875 -42.06375,10.52875 -26.665,0 -41.565,-7.37625 -42.065,-10.52875 l 0,-20.355 z m 95.755,7.50625 37.46125,4.6275 -37.46125,5.44875 0,-10.07625 z m 0,-5.25625 0,-7.4 20.225,-2.30125 -20.225,9.70125 z m -53.69,-27.22125 c 26.63875,0 41.5325,7.36125 42.06125,10.51875 -0.52875,3.1575 -15.4225,10.52 -42.06125,10.52 -26.64,0 -41.53375,-7.3625 -42.0625,-10.52 0.52875,-3.1575 15.4225,-10.51875 42.0625,-10.51875 z m -53.691,19.9325 0,7.08 -18.76462,-9.16125 18.76462,2.08125 z m 0,12.74 0,9.87875 -36.19625,-5.30875 36.19625,-4.57 z m 0.0132,12.89 c 0.0795,4.31 2.40575,7.9475 6.2895,10.945 l -49.84625,6.52125 43.55675,-17.46625 z m 105.399,73.92337 -40.89375,-45.38087 -12.33625,55.86175 -10.49875,-55.90925 -41.94575,44.839 22.1495,-51.57275 -55.44537,25.42775 41.28025,-35.22275 c 10.06762,6.77125 28.46387,9.95125 45.96887,9.95125 17.36375,0 35.605,-3.13125 45.725,-9.79125 l 40.86875,35.67888 -55.625,-25.94388 20.7525,52.06212 z m -4.4575,-62.88587 c 3.98125,-3.035 6.365,-6.72875 6.4175,-11.11875 l 44.175,17.78875 -50.5925,-6.67" transform="translate(-48,-258)"></path>
  <path style="fill:#f18700" d="m 270.87346,289.11266 0,7.4 20.225,-9.70125 z" id="path4819" inkscape:connector-curvature="0" transform="translate(-48,-258)" class="psc"></path>
  <g id="g5252" transform="translate(-48,-258)">
    <path d="m 52.803989,436.38853 c 0,3.51075 2.12745,6.62363 5.989262,8.76225 2.636225,1.44625 2.826213,2.2095 2.826213,3.2935 0,1.4575 -1.321338,2.47413 -3.212938,2.47413 -1.941887,0 -3.952637,-0.83113 -4.829587,-1.39013 -0.509275,-0.32475 -1.135738,-0.40437 -1.709475,-0.21737 -0.574213,0.1865 -1.034175,0.62012 -1.254875,1.18162 l -1.36475,3.46925 c -0.329101,0.835 -0.06689,1.78713 0.644042,2.3365 1.728033,1.33542 4.876471,2.23873 8.020995,2.29977 7.422838,0 12.580588,-4.54839 12.580588,-11.06202 0,-2.48925 -1.064,-6.06587 -6.133375,-8.97462 -2.584875,-1.41263 -2.796338,-2.15575 -2.796338,-2.85638 0,-1.25487 1.204088,-2.13137 2.928713,-2.13137 1.8965,0 3.308625,0.74462 3.69625,0.97162 0.516625,0.30525 1.141625,0.36376 1.706625,0.16113 0.563875,-0.20263 1.00925,-0.646 1.21525,-1.2085 l 1.307125,-3.584 c 0.319875,-0.87638 -5e-4,-1.85538 -0.776375,-2.373 -1.552625,-1.03513 -4.2245,-1.70413 -6.8075,-1.70413 -6.858463,0 -12.02985,4.53613 -12.02985,10.55175" style="fill:#231f20;fill-opacity:1;fill-rule:nonzero;stroke:none" id="path4702" inkscape:connector-curvature="0"></path>
    <path d="m 96.184339,426.46278 c -0.970625,0 -1.803625,0.69 -1.984375,1.6445 l -2.673375,14.104 c -1.023375,5.42338 -4.79,8.42288 -7.001875,8.42288 -1.565,0 -2.359375,-0.42725 -2.359375,-2.75875 0,-0.96188 0.129875,-2.09475 0.420875,-3.67088 l 2.899875,-15.34775 c 0.110875,-0.59075 -0.04875,-1.19862 -0.429625,-1.6625 -0.383875,-0.46387 -0.954125,-0.7315 -1.55525,-0.7315 l -4.6635,0 c -0.966875,0 -1.798375,0.68513 -1.9825,1.63475 l -3.014625,15.52588 c -0.370625,1.97512 -0.54925,3.62312 -0.54925,5.05037 0,6.25 3.4765,9.9814 9.29975,9.9814 2.46875,0 4.9185,-0.94092 7.13825,-2.49027 0.03612,0.42237 0.15275,0.84137 0.4355,1.1685 0.38375,0.44189 0.940375,0.69579 1.525875,0.69579 l 4.266125,0 c 1.037625,0 1.90575,-0.78617 2.00975,-1.81879 0.22075,-2.2095 0.61425,-4.85113 1.170375,-7.85163 l 3.750496,-19.49462 c 0.11425,-0.59088 -0.0405,-1.19875 -0.42575,-1.6675 -0.38325,-0.46388 -0.95462,-0.73388 -1.55712,-0.73388 l -4.720251,0" style="fill:#231f20;fill-opacity:1;fill-rule:nonzero;stroke:none" id="path4704" inkscape:connector-curvature="0"></path>
    <path d="m 114.68334,428.27328 c -0.0356,-0.42475 -0.15375,-0.84462 -0.438,-1.17187 -0.38375,-0.44188 -0.94038,-0.69575 -1.52488,-0.69575 l -4.32275,0 c -1.0205,0 -1.88037,0.76175 -2.00487,1.77487 -0.36625,2.99075 -0.94625,6.71 -1.51463,9.70713 l -5.517121,29.00629 c -0.11225,0.59082 0.044,1.20458 0.42825,1.66503 0.384251,0.46241 0.954121,0.73096 1.556121,0.73096 l 4.72025,0 c 0.97213,0 1.80713,-0.69336 1.98588,-1.64892 0,0 1.21337,-6.50146 1.77875,-9.53125 1.13962,0.30761 2.62012,0.54541 4.4825,0.54541 9.81925,0 18.11512,-9.5459 18.11512,-20.84565 0,-3.11525 -0.84612,-5.9815 -2.38325,-8.07137 -1.8775,-2.55275 -4.66262,-3.90138 -8.05375,-3.90138 -2.61325,0 -5.09425,0.90925 -7.30762,2.4365 z m -2.19475,15.81888 c 1.30462,-7.09963 5.311,-10.2915 7.73925,-10.2915 2.84475,0 3.2695,2.72462 3.2695,4.35062 0,6.44288 -4.5215,12.76713 -9.12738,12.76713 -1.20662,0 -2.18362,-0.25638 -3.03037,-0.625 0.3575,-1.92725 1.149,-6.20125 1.149,-6.20125" style="fill:#231f20;fill-opacity:1;fill-rule:nonzero;stroke:none" id="path4706" inkscape:connector-curvature="0"></path>
    <path d="m 133.39234,445.54391 c 0,8.05175 4.78425,13.05414 12.48487,13.05414 3.59038,0 7.35838,-0.90332 10.08063,-2.41702 0.76362,-0.42375 1.16837,-1.2915 1.00187,-2.14837 l -0.68212,-3.52538 c -0.122,-0.63 -0.53513,-1.16362 -1.11375,-1.4395 -0.57863,-0.27587 -1.25388,-0.25975 -1.81938,0.0405 -2.06875,1.1035 -4.17625,1.63913 -6.44375,1.63913 -2.16562,0 -3.56787,-0.8105 -4.28812,-2.4765 -0.26075,-0.59325 -0.38675,-1.5225 -0.44388,-2.38288 7.64113,-0.0976 12.82525,-1.48925 15.687,-4.30412 1.7705,-1.74075 2.6675,-3.96725 2.6675,-6.61863 0,-5.459 -4.05762,-9.1285 -10.09612,-9.1285 -10.03863,0 -17.03475,10.38575 -17.03475,19.70713 z m 16.35212,-11.97025 c 1.45263,0 2.18938,0.48825 2.18938,1.45012 0,0.59913 -0.15525,0.98388 -0.5175,1.34038 -0.78763,0.77637 -2.7945,1.65525 -7.71438,1.83937 1.31638,-2.55712 3.49025,-4.62987 6.0425,-4.62987" style="fill:#231f20;fill-opacity:1;fill-rule:nonzero;stroke:none" id="path4708" inkscape:connector-curvature="0"></path>
    <path d="m 171.55346,428.02428 c -0.0756,-0.3125 -0.11962,-0.63712 -0.33837,-0.88762 -0.38275,-0.438 -0.93888,-0.67388 -1.5215,-0.67388 l -4.15138,0 c -1.01562,0 -1.872,0.74463 -2.00187,1.752 l -0.23438,1.82125 -1.17,7.85013 -3.35587,17.748 c -0.11188,0.59087 0.0449,1.20125 0.42912,1.66362 0.38388,0.46287 0.95363,0.73142 1.55525,0.73142 l 4.72025,0 c 0.97263,0 1.80663,-0.69342 1.98525,-1.64792 l 2.27588,-12.17287 c 1.01612,-5.41988 4.0415,-9.668 6.88637,-9.668 l 0.97375,0.0855 c 1.03,0.0903 2.12,-0.59088 2.3175,-1.6055 l 0.90875,-4.664 c 0.11,-0.564 0.035,-1.14163 -0.31375,-1.59913 -0.34625,-0.459 -0.8125,-0.74125 -1.38625,-0.78762 l -1.64625,-0.13288 c -2.13,0 -4.14337,0.78125 -5.9325,2.1875" style="fill:#231f20;fill-opacity:1;fill-rule:nonzero;stroke:none" id="path4710" inkscape:connector-curvature="0"></path>
    <path d="m 205.24221,429.76503 c -1.39875,-2.47562 -3.93,-3.92825 -7.255,-3.92825 -2.59375,0 -5.0075,0.89363 -7.16625,2.418 -0.0488,-0.394 -0.1425,-0.7895 -0.4075,-1.09475 -0.385,-0.44337 -0.94125,-0.69725 -1.52625,-0.69725 l -4.1525,0 c -0.995,0 -1.85,0.78513 -2.00375,1.769 l -1.2325,7.90138 -3.695,19.501 c -0.1125,0.59087 0.0462,1.19875 0.42875,1.66362 0.38375,0.46287 0.95375,0.73142 1.555,0.73142 l 4.6075,0 c 0.9725,0 1.8075,-0.69479 1.985,-1.65192 l 2.56,-13.82075 c 0.98625,-5.34525 4.70375,-8.75587 6.83,-8.75587 1.29,0 2.075,0.18162 2.075,2.70025 0,0.91063 -0.0925,1.80662 -0.30875,2.99562 l -3.06875,16.13525 c -0.1125,0.59075 0.0425,1.206 0.42875,1.665 0.38375,0.46387 0.95375,0.73242 1.555,0.73242 l 4.55125,0 c 0.97375,0 1.80875,-0.69479 1.98625,-1.65192 l 2.615,-14.10487 c 1.02375,-5.52738 4.52625,-8.47175 6.65875,-8.47175 1.24875,0 2.1325,0.19775 2.1325,2.75887 0,0.9155 -0.13625,2.12738 -0.355,3.16651 l -2.96625,15.91299 c -0.10875,0.59088 0.0475,1.19638 0.4325,1.66113 0.38375,0.46146 0.9525,0.72904 1.55375,0.72904 l 4.60375,0 c 0.9725,0 1.805,-0.69092 1.985,-1.64554 l 3.07125,-16.26463 c 0.29375,-1.5845 0.4925,-3.606 0.4925,-5.039 0,-6.35012 -4.52625,-9.24325 -8.73125,-9.24325 -3.53375,0.0489 -6.7,1.438 -9.23875,3.92825" style="fill:#231f20;fill-opacity:1;fill-rule:nonzero;stroke:none" id="path4712" inkscape:connector-curvature="0"></path>
    <path d="m 223.76346,447.53603 c 0,6.54638 4.0825,11.11915 9.92625,11.11915 3.12125,0 5.83,-1.19385 8.19875,-3.30327 -0.006,0.19537 -0.0375,0.48 -0.0375,0.65825 0,1.11575 0.90375,2.01904 2.02,2.01904 l 4.37875,0 c 0.5475,0 1.07125,-0.22363 1.4525,-0.61767 0.38125,-0.3955 0.58625,-0.92775 0.56375,-1.477 -0.0925,-2.50987 0.1425,-7.23537 1.10375,-12.28762 l 2.8425,-14.375 c 0.2025,-1.0245 -0.40875,-2.03375 -1.41125,-2.32913 -2.32,-0.68212 -5.37125,-1.106 -7.96375,-1.106 -13.19,0 -21.07375,11.03275 -21.07375,21.69925 z m 8.9325,-0.8545 c 0,-6.831 5.2175,-13.05175 10.9475,-13.05175 0.39,0 0.62,0.0318 0.92125,0.0513 -0.4475,2.32663 -1.19875,6.2515 -1.19875,6.2515 -1.1875,6.37788 -5.15125,10.81488 -7.97,10.81488 -0.73875,0 -2.7,0 -2.7,-4.06588" style="fill:#231f20;fill-opacity:1;fill-rule:nonzero;stroke:none" id="path4714" inkscape:connector-curvature="0"></path>
    <path d="m 253.79471,446.45453 c 0,5.75188 3.58375,11.57467 10.43625,11.57467 2.1875,0 4.24125,-0.59082 6.09875,-1.66754 -1.71375,4.95856 -4.58,5.70416 -7.23625,5.70416 -2.6925,0 -5.04125,-0.74805 -6.17125,-1.49024 -0.52,-0.33935 -1.1675,-0.42236 -1.75375,-0.22362 -0.5875,0.19775 -1.0525,0.65576 -1.26,1.23925 l -1.3075,3.69874 c -0.30875,0.87157 0.0138,1.84326 0.785,2.35351 2.105,1.40234 5.69375,2.27295 9.36625,2.27295 3.07625,0 7.465,-0.60547 10.9075,-3.48633 3.07625,-2.70752 4.98125,-6.86767 6.20625,-13.52292 l 4.265,-22.74413 c 0.17125,-0.90337 -0.29,-1.80662 -1.12,-2.19875 -2.075,-0.9815 -5.87,-2.1275 -9.73625,-2.1275 -12.195,0 -19.48,10.48338 -19.48,20.61775 z m 10.0675,3.0185 c -0.7175,-0.73237 -1.1125,-2.10937 -1.08125,-3.77787 0,-0.0121 0,-0.0244 0,-0.0366 0,-5.68987 3.9575,-12.02875 9.63875,-12.02875 0.8425,0 1.61125,0.11725 2.23875,0.271 -0.435,2.25825 -1.435,7.45113 -1.435,7.45113 -0.865,4.57037 -4.35125,8.88437 -7.17375,8.88437 -0.96625,0 -1.68375,-0.24912 -2.1875,-0.76325" style="fill:#231f20;fill-opacity:1;fill-rule:nonzero;stroke:none" id="path4716" inkscape:connector-curvature="0"></path>
    <path d="m 296.45971,428.38903 c -0.0237,-0.44925 -0.1625,-0.88962 -0.46375,-1.23387 -0.3825,-0.43938 -0.9375,-0.69238 -1.52,-0.69238 l -4.26625,0 c -1.0175,0 -1.8775,0.75825 -2.00375,1.769 -0.3425,2.73438 -0.76125,5.30763 -1.28375,7.86625 l -3.645,19.541 c -0.1125,0.59088 0.0437,1.19725 0.42875,1.66013 0.38625,0.46246 0.955,0.73004 1.555,0.73004 l 4.66375,0 c 0.97125,0 1.80625,-0.69342 1.985,-1.64792 l 2.5025,-13.36575 c 1.08875,-5.936 5.065,-9.21487 7.4,-9.21487 1.25875,0 2.30125,0.2075 2.30125,2.75887 0,1.06925 -0.1575,2.22163 -0.31375,3.20888 l -3.00625,15.86575 c -0.1125,0.59087 0.0463,1.19875 0.43,1.66362 0.38375,0.46287 0.9525,0.73142 1.555,0.73142 l 4.66375,0 c 0.96875,0 1.80125,-0.68842 1.98375,-1.64067 l 3.0725,-16.09612 c 0.1625,-0.8535 0.54625,-3.03712 0.54625,-4.8145 0,-7.11663 -4.82625,-9.64113 -8.9575,-9.64113 -2.75875,0 -5.34625,0.95313 -7.6275,2.55225" style="fill:#231f20;fill-opacity:1;fill-rule:nonzero;stroke:none" id="path4718" inkscape:connector-curvature="0"></path>
    <path d="m 313.71346,445.54391 c 0,8.05175 4.785,13.05414 12.485,13.05414 3.59,0 7.35875,-0.90332 10.08125,-2.41702 0.76375,-0.42375 1.16625,-1.2915 1.00125,-2.14837 l -0.68125,-3.52538 c -0.1225,-0.63 -0.535,-1.16362 -1.11375,-1.4395 -0.57875,-0.27587 -1.255,-0.25975 -1.81875,0.0405 -2.07,1.1035 -4.1775,1.63913 -6.445,1.63913 -2.16625,0 -3.5675,-0.8105 -4.2875,-2.4765 -0.26125,-0.59325 -0.385,-1.5225 -0.44375,-2.38288 7.64125,-0.0976 12.82375,-1.48925 15.685,-4.30412 1.77,-1.74075 2.66875,-3.96725 2.66875,-6.61863 0,-5.459 -4.0575,-9.1285 -10.095,-9.1285 -10.03875,0 -17.03625,10.38575 -17.03625,19.70713 z m 16.3525,-11.97025 c 1.4525,0 2.1875,0.48825 2.1875,1.45012 0,0.59913 -0.15375,0.98388 -0.5175,1.34138 -0.78625,0.77537 -2.7925,1.65425 -7.7125,1.83837 1.31625,-2.55712 3.49125,-4.62987 6.0425,-4.62987" style="fill:#231f20;fill-opacity:1;fill-rule:nonzero;stroke:none" id="path4720" inkscape:connector-curvature="0"></path>
    <path d="m 353.90846,419.95541 -4.94875,1.53575 c -0.7125,0.22212 -1.245,0.81787 -1.38375,1.55025 0,0 -0.36875,1.92237 -0.65375,3.42137 -1.10125,0 -2.25375,0 -2.25375,0 -0.97375,0 -1.80875,0.69488 -1.9875,1.65288 l -0.68125,3.69625 c -0.0225,0.12212 -0.0337,0.24562 -0.0337,0.36762 0,0.46738 0.16375,0.92538 0.46625,1.2915 0.385,0.4615 0.95375,0.72763 1.5525,0.72763 0,0 0.78625,0 1.4825,0 -0.6325,3.2885 -2.215,11.53412 -2.215,11.53412 -0.395,1.9825 -0.66125,3.68563 -0.66125,5.4995 0,4.47513 3.07125,7.36577 7.8225,7.36577 0.825,0 2.9075,-0.0635 4.38625,-0.65577 0.725,-0.28906 1.21875,-0.97162 1.2675,-1.7515 l 0.2275,-3.69625 c 0.0412,-0.65087 -0.235,-1.28075 -0.74,-1.69187 -0.505,-0.41013 -1.18,-0.55325 -1.80625,-0.38088 -0.38375,0.1035 -0.93625,0.15475 -1.6875,0.15475 -0.38625,0 -0.5125,-0.0766 -0.5175,-0.0791 l 0,0 c 0,-0.01 -0.0787,-0.165 -0.0787,-0.57363 0,-1.106 0.16125,-2.32187 0.52,-3.942 0,0 1.73125,-9.2465 2.2075,-11.78312 1.865,0 4.92125,0 4.92125,0 0.9625,0 1.7925,-0.67875 1.98,-1.6235 l 0.74,-3.69638 c 0.0275,-0.13175 0.04,-0.26362 0.04,-0.3955 0,-0.46387 -0.15875,-0.917 -0.4575,-1.28175 -0.385,-0.46775 -0.95625,-0.73875 -1.5625,-0.73875 0,0 -2.22125,0 -4.16,0 0.36875,-1.94337 0.79875,-4.20162 0.79875,-4.20162 0.0213,-0.1255 0.0337,-0.2515 0.0337,-0.377 0,-0.56888 -0.24125,-1.11963 -0.67375,-1.50638 -0.53,-0.47112 -1.2675,-0.63225 -1.94375,-0.42237" style="fill:#231f20;fill-opacity:1;fill-rule:nonzero;stroke:none" id="path4722" inkscape:connector-curvature="0"></path>
    <path d="m 358.04721,445.54391 c 0,8.05175 4.785,13.05414 12.485,13.05414 3.58875,0 7.35875,-0.90332 10.08125,-2.41702 0.76375,-0.42375 1.16625,-1.2915 1,-2.14837 l -0.68,-3.52538 c -0.1225,-0.63 -0.535,-1.16362 -1.11375,-1.4395 -0.57875,-0.27587 -1.255,-0.25975 -1.81875,0.0405 -2.07,1.1035 -4.1775,1.63913 -6.445,1.63913 -2.16625,0 -3.5675,-0.8105 -4.2875,-2.4765 -0.26125,-0.59325 -0.38625,-1.5225 -0.445,-2.38288 7.6425,-0.0976 12.825,-1.48925 15.68625,-4.30412 1.77,-1.74075 2.66875,-3.96725 2.66875,-6.61863 0,-5.459 -4.0575,-9.1285 -10.095,-9.1285 -10.03875,0 -17.03625,10.38575 -17.03625,19.70713 z m 16.3525,-11.97025 c 1.4525,0 2.1875,0.48825 2.1875,1.45012 0,0.59913 -0.15375,0.98388 -0.5175,1.34138 -0.78625,0.77537 -2.7925,1.65425 -7.7125,1.83837 1.31625,-2.55712 3.49125,-4.62987 6.0425,-4.62987" style="fill:#231f20;fill-opacity:1;fill-rule:nonzero;stroke:none" id="path4724" inkscape:connector-curvature="0"></path>
  </g>
</svg>
